<svg width="684" height="685" viewBox="0 0 684 684" xmlns="http://www.w3.org/2000/svg">
  <g fill-rule="nonzero" fill="none">
    <path d="M134.977688,95.1327306 C119.042566,138.561487 70.9619966,160.244794 27.2935476,144.984362 C13.7686682,140.261529 5.9520247,135.623033 1.91719851,132.728966 L1.91719851,84.4397754 C9.85368831,104.840283 29.6682803,119.310617 52.8785181,119.310617 C83.0753527,119.310617 107.555074,94.8264567 107.555074,64.6296221 C107.555074,40.1232685 91.4379627,19.3898547 69.2264443,12.438768 C78.2104797,11.076071 92.7562723,7.98669909 109.037617,1.06224489 C136.105131,23.0385095 147.659204,60.6081122 134.977688,95.1327306" transform="translate(115.548411, 0.795489) translate(221.079029, 171.321696) scale(-1, 1) rotate(-180.000000) translate(-221.079029, -171.321696) translate(150.058986, 95.862900)" fill="#5069E6"/>
    <path d="M199.92586,131.888659 C200.072339,142.714776 198.92714,153.696251 196.388174,164.606705 L225.621799,179.090355 L214.986548,209.668922 L181.061161,203.197221 C176.76001,210.583305 171.819678,217.445617 166.351134,223.770839 L186.938069,254.402672 L162.533807,275.677613 L133.908291,251.193453 C126.970521,255.40583 119.708721,259.001219 112.16728,261.944112 L116.645982,299.638 L85.2284904,307.463521 L70.2832101,271.114575 C60.6599942,271.691613 50.8991771,271.252177 41.1383599,269.734123 L26.0332845,298.945555 L0.0266325161,289.397798 L0.0266325161,220.361877 C4.29227385,223.078394 12.796924,227.552657 27.7777143,232.089062 C79.4980606,245.622819 134.174616,217.805156 152.981611,166.613021 C167.736025,126.424554 156.275166,82.9292165 127.352253,54.8762995 C145.524507,43.8504378 163.896504,27.4891954 177.82531,3.24916697 L203.108446,37.5873578 L179.170252,59.5858161 C183.724413,67.6865397 190.52902,82.8182477 193.369822,91.6646818 L225.839298,91.6824368 L230.788507,123.352937 L199.92586,131.888659 Z" transform="translate(115.548411, 0.795489) translate(267.353124, 155.606857) scale(-1, 1) rotate(-180.000000) translate(-267.353124, -155.606857) translate(151.945555, 0.250513)" fill="#262626"/>
    <path d="M373.243617,62.5176122 L332.98413,165.736367 C292.471634,277.144621 163.823265,268.382523 163.823265,268.382523 L133.932704,268.382523 C133.932704,268.382523 133.586482,422.469384 133.586482,454.033354 C133.586482,478.996899 112.759854,484.749523 104.042144,486.072271 L0.832266129,486.072271 L1.48920153,465.085849 C42.5742964,471.646325 62.0293494,453.287644 59.8454831,410.014244 L59.8454831,73.6588815 C59.3927303,36.0448912 40.5990515,19.8878314 3.44669146,25.1299983 L2.79863357,2.19052445 L202.777758,2.19052445 L202.777758,25.1299983 C155.997744,20.3228292 132.623272,36.928203 132.623272,74.9638748 L132.623272,193.647244 L173.437603,193.647244 C221.260725,194.068926 241.674548,181.964447 264.165708,143.085412 L297.838086,61.1815477 C307.452424,35.8451473 296.311155,23.5986287 264.414278,24.4863792 L264.414278,2.19052445 L451.920508,2.19052445 L451.920508,24.4863792 C416.956453,21.4103236 390.727864,34.0962788 373.243617,62.5176122" transform="translate(115.548411, 0.795489) translate(226.466974, 270.510292) scale(-1, 1) rotate(-180.000000) translate(-226.466974, -270.510292) translate(0.090587, 26.378894)" fill="#262626"/>
    <path d="M57.9124063,31.0734882 C57.9124063,16.252493 45.8878253,4.22791194 31.0712688,4.22791194 C16.2458348,4.22791194 4.23013131,16.252493 4.23013131,31.0734882 C4.23013131,45.8944834 16.2458348,57.9146257 31.0712688,57.9146257 C45.8878253,57.9146257 57.9124063,45.8944834 57.9124063,31.0734882" transform="translate(115.548411, 0.795489) translate(202.940009, 182.152725) scale(-1, 1) rotate(-180.000000) translate(-202.940009, -182.152725) translate(171.868740, 151.081456)" fill="#5069E6"/>
    <g fill="#262626">
      <path d="M39.3067896,98.9069892 L1.94958525,98.9069892 L1.94958525,81.6364209 L7.73926267,81.6364209 L7.73926267,50.068894 L2.06774194,50.068894 L2.06774194,32.9361751 L26.8806452,32.9361751 L30.8782796,41.3843779 C31.7316334,39.8352125 32.4471377,38.5945673 33.0247926,37.6624424 C33.615576,36.743446 34.4754941,35.7062929 35.6045469,34.5509831 C36.7467281,33.3825448 37.9611162,32.5029339 39.2477112,31.9121505 C40.5343062,31.3082386 42.2081925,30.7830978 44.2693702,30.3367281 C46.3305479,29.8772299 48.6739887,29.6474808 51.2996928,29.6474808 L51.2996928,29.6474808 L51.2996928,53.3575883 C44.9848746,53.3575883 40.3045571,54.4209985 37.2587404,56.5478187 C34.1997952,58.674639 32.6703226,62.5081669 32.6703226,68.0484025 L32.6703226,68.0484025 L32.6703226,81.6364209 L39.3067896,81.6364209 L39.3067896,98.9069892 Z M53.879447,65.5277266 L53.879447,65.5277266 C53.879447,60.2500614 54.7918792,55.418766 56.6167435,51.0338402 C58.4416078,46.662043 60.9491551,43.0320072 64.1393856,40.1437327 C67.3427445,37.2685868 71.1040655,35.0367384 75.4233487,33.4481874 C79.7426318,31.8596365 84.390128,31.065361 89.3658372,31.065361 L89.3658372,31.065361 C97.0985356,31.065361 103.813774,32.8377112 109.511551,36.3824117 C115.196201,39.9271121 119.003472,44.5352227 120.933364,50.2067435 L120.933364,50.2067435 C121.537276,51.9265796 122.009903,53.9680645 122.351244,56.3311982 L122.351244,56.3311982 C122.613815,58.0379058 122.7451,59.9218484 122.7451,61.9830261 L122.7451,61.9830261 C122.7451,62.7182232 122.725407,63.5124987 122.686022,64.3658525 L122.686022,64.3658525 C122.554736,67.3722837 122.055853,70.0833231 121.18937,72.4989708 L121.18937,72.4989708 L79.6376037,72.4989708 C79.8607885,73.4836098 80.0774091,74.3172709 80.2874654,74.9999539 C80.4975218,75.6957655 80.9241987,76.6213262 81.5674962,77.7766359 C82.2107937,78.9319457 82.9788121,79.8640707 83.8715515,80.5730108 C84.7511623,81.2819508 86.004936,81.9186841 87.6328725,82.4832104 C89.260809,83.0346083 91.1316231,83.3103072 93.2453149,83.3103072 L93.2453149,83.3103072 C95.2145929,83.3103072 96.9738146,83.2184076 98.52298,83.0346083 C100.072145,82.8376805 102.100502,82.2468971 104.608049,81.2622581 C107.115597,80.2644905 109.465602,78.8466103 111.658065,77.0086175 L111.658065,77.0086175 L122.7451,89.8286175 C117.979447,93.9509729 112.879017,96.8917614 107.44381,98.6509831 C102.008602,100.410205 95.772555,101.289816 88.7356682,101.289816 L88.7356682,101.289816 C85.3353815,101.289816 82.0269944,100.869703 78.8105069,100.029478 C75.5808909,99.1892524 72.4431746,97.8370148 69.3973579,95.972765 C66.3515412,94.1085151 63.6864516,91.8110241 61.4020891,89.0802919 C59.1308551,86.3495597 57.3059908,82.9689657 55.9274962,78.93851 C54.5621301,74.8949258 53.879447,70.4246646 53.879447,65.5277266 Z M80.0314593,59.482043 L80.0314593,59.482043 L99.9408602,59.482043 C99.9014747,58.0247773 99.7636252,56.7447465 99.5273118,55.6419508 C99.2909985,54.5522837 98.8446288,53.4560522 98.1882028,52.3532565 C97.5449053,51.2635893 96.5471377,50.4167998 95.1949002,49.8128879 C93.8426626,49.2089759 92.162212,48.90702 90.1535484,48.90702 L90.1535484,48.90702 C88.2630415,48.90702 86.6285407,49.2877471 85.2500461,50.0492012 C83.8715515,50.7975269 82.8409626,51.7821659 82.1582796,53.0031183 C81.4755965,54.2240707 80.9701485,55.3531234 80.6419355,56.3902765 C80.3137225,57.4143011 80.1102304,58.4448899 80.0314593,59.482043 Z M151.161782,98.9069892 L128.022765,98.9069892 L128.022765,65.665576 L152.579662,65.665576 C152.579662,67.7661393 152.986646,69.6238249 153.800614,71.2386329 C154.614583,72.8534409 155.61235,74.1203431 156.793917,75.0393395 C157.975484,75.9583359 159.373671,76.7066615 160.988479,77.2843164 C162.590159,77.8750998 164.027732,78.2755197 165.301198,78.485576 C166.561536,78.6956324 167.86126,78.8269176 169.200369,78.8794316 L169.200369,78.8794316 C171.038361,78.8794316 172.718812,78.7284537 174.24172,78.4264977 C175.777757,78.1245417 177.189073,77.4484229 178.475668,76.3981413 C179.762263,75.3347312 180.405561,73.9496723 180.405561,72.2429647 L180.405561,72.2429647 C180.405561,71.166426 179.827906,70.1883513 178.672596,69.3087404 C177.504158,68.4291295 175.941864,67.6414183 173.985714,66.9456068 C172.029565,66.2629237 169.784588,65.5802407 167.250783,64.8975576 C164.716979,64.201746 162.058454,63.4140348 159.275207,62.534424 C156.478833,61.6548131 153.689022,60.6767384 150.905776,59.6001997 C148.109401,58.5367896 145.444311,57.184552 142.910507,55.5434869 C140.376703,53.9155504 138.131726,52.0841219 136.175576,50.0492012 C134.219427,48.0011521 132.663697,45.4936047 131.508387,42.5265591 C130.339949,39.5726421 129.75573,36.290512 129.75573,32.680169 L129.75573,32.680169 C129.75573,28.9385407 130.438413,25.4726114 131.803779,22.282381 C133.156016,19.079022 134.915238,16.4008039 137.081444,14.2477266 C139.24765,12.1077778 141.715812,10.2632207 144.485929,8.7140553 C147.256047,7.16488991 150.058986,6.04896569 152.894747,5.36628264 C155.730507,4.67047107 158.480932,4.32256528 161.146022,4.32256528 L161.146022,4.32256528 C167.198269,4.32256528 172.685991,5.39910394 177.609186,7.55218126 C182.519252,9.70525858 186.221495,13.0989811 188.715914,17.7333487 L188.715914,17.7333487 L190.074716,6.64631336 L212.741106,6.64631336 L212.741106,39.7695699 L188.834071,39.7695699 C188.834071,35.0433026 187.225827,31.3148029 184.009339,28.5840707 C180.792852,25.8533385 176.775525,24.4879724 171.957358,24.4879724 L171.957358,24.4879724 C169.764895,24.4879724 167.703717,25.1115771 165.773825,26.3587865 C163.843932,27.6059959 162.878986,29.3061393 162.878986,31.4592166 L162.878986,31.4592166 C162.878986,32.8770968 163.46977,34.1965131 164.651336,35.4174654 C165.832903,36.6384178 167.434583,37.7149565 169.456375,38.6470814 C171.465038,39.5660778 173.782222,40.4653815 176.407926,41.3449923 C179.03363,42.2246032 181.79062,43.1567281 184.678894,44.1413671 C187.580297,45.1260061 190.468571,46.1894163 193.343717,47.3315975 C196.231992,48.4737788 198.982417,49.8522734 201.594992,51.4670814 C204.220696,53.0687609 206.53788,54.8345469 208.546544,56.7644393 C210.568336,58.7074603 212.170015,61.0640297 213.351582,63.8341475 C214.533149,66.6042652 215.123932,69.6435177 215.123932,72.9519048 L215.123932,72.9519048 C215.123932,76.9035893 214.408428,80.4876754 212.977419,83.7041628 C211.533282,86.9206503 209.649339,89.5857399 207.325591,91.6994316 C205.014972,93.7999949 202.310497,95.5592166 199.212166,96.9770968 C196.126964,98.394977 192.989247,99.405873 189.799017,100.009785 C186.621915,100.600568 183.405428,100.89596 180.149555,100.89596 L180.149555,100.89596 C174.005407,100.89596 168.603021,99.7275218 163.942396,97.3906452 C159.281772,95.0537686 155.494194,92.1654941 152.579662,88.7258218 L152.579662,88.7258218 L151.161782,98.9069892 Z M263.253088,98.9069892 L221.701321,98.9069892 L221.701321,81.7742704 L228.8498,81.7742704 L228.8498,23.7199539 L221.701321,23.7199539 L221.701321,6.64631336 L263.253088,6.64631336 L263.253088,23.7199539 L256.163687,23.7199539 L256.163687,45.1850845 L280.720584,23.7199539 L271.169585,23.7199539 L271.169585,6.64631336 L315.123871,6.64631336 L315.123871,23.7199539 L307.443687,23.7199539 L288.321997,40.2225038 L314.986022,81.7742704 L322.646513,81.7742704 L322.646513,98.9069892 L271.169585,98.9069892 L271.169585,81.7742704 L280.1298,81.7742704 L265.89192,59.3441935 L256.163687,67.6545469 L256.163687,81.7742704 L263.253088,81.7742704 L263.253088,98.9069892 Z M371.878464,98.9069892 L329.223902,98.9069892 L329.223902,81.5182642 L336.628387,81.5182642 L336.628387,23.9759601 L329.223902,23.9759601 L329.223902,6.64631336 L372.13447,6.64631336 C378.107947,6.64631336 383.280584,7.11894009 387.652381,8.06419355 C392.037307,9.009447 395.562314,10.2697849 398.227404,11.8452074 C400.892494,13.4075013 403.019314,15.4030364 404.607865,17.8318126 C406.196416,20.2605888 407.26639,22.7156221 407.817788,25.1969124 C408.382314,27.6913313 408.664578,30.5730415 408.664578,33.842043 L408.664578,33.842043 C408.664578,38.8702663 406.879099,43.1107783 403.308141,46.5635791 C399.750312,50.0163799 395.15533,52.1497645 389.523195,52.9637327 L389.523195,52.9637327 C394.157563,53.6201587 398.194583,55.746979 401.634255,59.3441935 C405.073927,62.9545366 406.793763,67.076892 406.793763,71.7112596 L406.793763,71.7112596 C406.793763,77.6847363 407.863738,80.6714747 410.003687,80.6714747 L410.003687,80.6714747 C412.025479,80.6714747 413.036375,79.2798515 413.036375,76.4966052 L413.036375,76.4966052 L413.036375,72.1051152 L421.85874,72.1051152 L421.85874,79.3914439 C421.85874,81.6626779 421.668377,83.7960625 421.28765,85.7915975 C420.893794,87.7871326 420.230804,89.6973323 419.298679,91.5221966 C418.353425,93.3470609 417.15873,94.9159191 415.714593,96.2287711 C414.270456,97.5416231 412.432463,98.5853405 410.200614,99.3599232 C407.968766,100.134506 405.434962,100.521797 402.599201,100.521797 L402.599201,100.521797 C394.09192,100.521797 387.704895,98.394977 383.438126,94.1413364 C379.158228,89.8876959 377.01828,83.8288838 377.01828,75.9649002 L377.01828,75.9649002 C377.01828,72.7484127 376.893559,70.2671224 376.644117,68.5210292 C376.381546,66.7880645 375.77107,65.2979775 374.812688,64.050768 C373.841178,62.8035586 372.515197,61.9895904 370.834747,61.6088633 C369.167424,61.2150077 366.830548,61.0180799 363.824117,61.0180799 L363.824117,61.0180799 L363.824117,81.5182642 L371.878464,81.5182642 L371.878464,98.9069892 Z M363.824117,23.8578034 L363.824117,46.2681874 L369.751644,46.2681874 C373.650814,46.2681874 376.742581,45.349191 379.026943,43.5111982 C381.298177,41.6600768 382.433794,39.01468 382.433794,35.5750077 L382.433794,35.5750077 C382.433794,31.7152227 381.396641,28.794127 379.322335,26.8117204 C377.2349,24.8424424 374.254726,23.8578034 370.381813,23.8578034 L370.381813,23.8578034 L363.824117,23.8578034 Z M463.410507,98.9069892 L426.447158,98.9069892 L426.447158,81.6364209 L431.980829,81.6364209 L431.980829,50.068894 L426.447158,50.068894 L426.447158,32.9361751 L457.049739,32.9361751 L457.049739,81.6364209 L463.410507,81.6364209 L463.410507,98.9069892 Z M434.304578,22.8534716 C431.547588,20.0833538 430.169094,17.0244086 430.169094,13.6766359 C430.169094,10.3288633 431.468817,7.24366103 434.068264,4.42102919 C436.667711,1.61152586 440.113948,0.206774194 444.406974,0.206774194 L444.406974,0.206774194 C448.660614,0.206774194 452.139672,1.62465438 454.844147,4.46041475 C457.548623,7.29617512 458.90086,10.3682488 458.90086,13.6766359 L458.90086,13.6766359 C458.90086,17.4970353 457.614265,20.6741372 455.041075,23.2079416 C452.467885,25.741746 448.923185,27.0086482 444.406974,27.0086482 L444.406974,27.0086482 C440.415904,27.0086482 437.048438,25.6235893 434.304578,22.8534716 Z M469.928817,125.82702 L469.928817,108.576144 L475.462488,108.576144 L475.462488,50.4627496 L469.928817,50.4627496 L469.928817,32.9361751 L500.137542,32.9361751 L502.402212,37.5836713 C507.469821,33.8026575 512.793436,31.9121505 518.373057,31.9121505 L518.373057,31.9121505 C523.361895,31.9121505 527.858413,32.8245827 531.862611,34.649447 C535.879939,36.4743113 539.155504,38.9752944 541.689309,42.1523963 C544.223113,45.3294982 546.15957,48.9923554 547.498679,53.1409677 C548.824659,57.2764516 549.48765,61.7073272 549.48765,66.4335945 L549.48765,66.4335945 C549.48765,73.260425 548.155105,79.2732873 545.490015,84.4721813 C542.838054,89.6710753 539.24084,93.6227599 534.698372,96.327235 C530.169032,99.0317102 525.068602,100.383948 519.397081,100.383948 L519.397081,100.383948 C516.863277,100.383948 514.513272,100.173891 512.347066,99.7537788 C510.18086,99.3205376 508.388817,98.7560113 506.970937,98.0601997 C505.553057,97.3775166 504.535597,96.8326831 503.918556,96.4256989 C503.288387,96.0187148 502.736989,95.6248592 502.264363,95.2441321 L502.264363,95.2441321 L502.264363,108.576144 L509.412842,108.576144 L509.412842,125.82702 L469.928817,125.82702 Z M502.264363,67.3985407 L502.264363,67.3985407 C502.264363,71.822852 503.209616,75.557916 505.100123,78.6037327 C506.99063,81.6626779 509.202785,83.1921505 511.73659,83.1921505 L511.73659,83.1921505 C514.532965,83.1921505 516.797634,81.688935 518.530599,78.6825038 C520.276692,75.6760727 521.149739,71.6784383 521.149739,66.6896006 L521.149739,66.6896006 C521.149739,64.024511 520.762448,61.4578853 519.987865,58.9897235 C519.213282,56.5215617 518.084229,54.4866411 516.600707,52.8849616 C515.117184,51.2701536 513.456426,50.4627496 511.618433,50.4627496 L511.618433,50.4627496 C508.900829,50.4627496 506.603338,52.0316078 504.72596,55.1693241 L504.72596,55.1693241 C503.045509,57.9131848 502.205284,61.4119355 502.205284,65.665576 L502.205284,65.665576 C502.205284,66.2169739 502.224977,66.7946288 502.264363,67.3985407 Z M559.865745,50.068894 L552.776344,50.068894 L552.776344,32.9361751 L559.865745,32.9361751 L559.865745,20.8251152 L584.146943,13.0267742 L584.146943,32.9361751 L596.710937,32.9361751 L596.710937,50.068894 L584.146943,50.068894 L584.146943,73.5820737 C584.146943,73.9759293 584.140379,74.6454839 584.12725,75.5907373 C584.100993,76.5359908 584.087865,77.2449309 584.087865,77.7175576 C584.087865,78.1901843 584.120686,78.8203533 584.186329,79.6080645 C584.251971,80.4089042 584.383257,81.0193804 584.580184,81.4394931 C584.763984,81.8727343 585.006861,82.3256682 585.308817,82.7982949 C585.610773,83.2709217 586.017757,83.6122632 586.52977,83.8223195 C587.05491,84.0455044 587.678515,84.1570968 588.400584,84.1570968 L588.400584,84.1570968 C590.291091,84.1570968 593.061208,83.4022069 596.710937,81.892427 L596.710937,81.892427 L596.710937,98.7691398 C594.951715,99.5043369 592.332576,100.108249 588.853518,100.580876 C585.37446,101.053502 582.669985,101.289816 580.740092,101.289816 L580.740092,101.289816 C576.867179,101.289816 573.624434,100.817189 571.011859,99.8719355 C568.386155,98.926682 566.364363,97.8107578 564.946482,96.5241628 C563.528602,95.2375678 562.445499,93.2157757 561.697174,90.4587865 C560.948848,87.7149258 560.476221,85.2598925 560.279293,83.0936866 C560.082366,80.9274808 559.944516,77.7569432 559.865745,73.5820737 L559.865745,73.5820737 L559.865745,50.068894 Z" transform="translate(42.798666, 558.490909)"/>
    </g>
  </g>
</svg>
