<svg xmlns="http://www.w3.org/2000/svg" viewBox="0 0 1280 1024">
  <rect paint-order="stroke" x="-325" y="-260" rx="0" ry="0" width="650" height="520" fill="transparent" transform="matrix(1.96928 0 0 1.96928 640.02 512.01)"/>
  <g paint-order="stroke">
    <path d="M698.59 318.44c-15.94-43.43-64.02-65.1-107.69-49.85-13.52 4.72-21.34 9.36-25.38 12.26v48.29a54.69 54.69 0 1167.31 72 167.52 167.52 0 0139.82 11.37c27.06-21.97 38.62-59.54 25.94-94.07" fill="#5069e6"/>
    <path d="M765.42 345.87c.15-10.83-1-21.8-3.54-32.72l29.24-14.48-10.64-30.58-33.92 6.47A136.39 136.39 0 00731.85 254l20.58-30.63-24.4-21.28-28.63 24.49c-6.94-4.22-14.2-7.81-21.74-10.76l4.48-37.69-31.42-7.82-14.94 36.34a136.4 136.4 0 00-29.15 1.38l-15.1-29.2-26 9.54v69.04c4.26-2.72 12.76-7.2 27.74-11.73 51.72-13.53 106.4 14.28 125.2 65.48 14.76 40.18 3.3 83.68-25.62 111.73a143.27 143.27 0 0150.47 51.63l25.28-34.34-23.94-22c4.56-8.1 11.36-23.23 14.2-32.08l32.47-.01 4.95-31.67z" fill="#262626"/>
    <path d="M786.88 618.92L746.62 515.7c-40.5-111.4-169.16-102.65-169.16-102.65h-29.89s-.34-154.08-.34-185.65c0-24.96-20.83-30.71-29.55-32.04h-103.2l.65 21c41.08-6.57 60.54 11.79 58.35 55.06v336.36c-.45 37.61-19.24 53.77-56.4 48.53l-.64 22.94h199.98V656.3c-46.78 4.8-70.16-11.8-70.16-49.84V487.8h40.82c47.82-.42 68.23 11.68 90.72 50.56l33.68 81.9c9.61 25.34-1.53 37.59-33.43 36.7v22.3h187.51v-22.3c-34.96 3.08-61.2-9.6-78.68-38.03" fill="#262626"/>
    <path d="M643.33 348.95a26.85 26.85 0 11-53.7-.02 26.85 26.85 0 0153.7.02" fill="#5069e6"/>
  </g>
  <path paint-order="stroke" d="M377.1 822.4h-37.35v-17.27h5.79v-31.57h-5.67v-17.13h24.8l4 8.45q1.29-2.33 2.15-3.73.89-1.38 2.58-3.1 1.72-1.76 3.65-2.65 1.93-.9 5.02-1.57 3.09-.7 7.03-.7v23.72q-9.47 0-14.04 3.19-4.6 3.19-4.6 11.5v13.59h6.65v17.27zm14.58-33.38q0-7.92 2.74-14.5 2.73-6.55 7.52-10.89 4.8-4.3 11.28-6.7 6.48-2.37 13.94-2.37 11.6 0 20.15 5.31 8.53 5.32 11.42 13.83.9 2.58 1.42 6.12.4 2.56.4 5.65 0 1.1-.07 2.39-.2 4.5-1.5 8.13h-41.54q.33 1.48.65 2.5.31 1.04 1.28 2.78.96 1.73 2.3 2.8 1.32 1.06 3.76 1.9 2.44.83 5.61.83 2.96 0 5.28-.27 2.33-.3 6.09-1.78 3.76-1.5 7.05-4.25l11.08 12.82q-7.14 6.18-15.3 8.82-8.15 2.64-18.7 2.64-5.1 0-9.93-1.26-4.85-1.26-9.41-4.06-4.57-2.8-8-6.89-3.4-4.1-5.47-10.14-2.05-6.07-2.05-13.41zm26.15-6.05h19.91q-.06-2.18-.41-3.84-.36-1.63-1.34-3.29-.97-1.63-3-2.54-2.02-.9-5.04-.9-2.83 0-4.9 1.14-2.07 1.12-3.1 2.95-1.02 1.84-1.5 3.4-.5 1.53-.62 3.08zm71.13 39.43h-23.14v-33.24h24.56q0 3.15 1.22 5.57 1.22 2.42 3 3.8 1.76 1.38 4.19 2.25 2.4.88 4.31 1.2 1.89.31 3.9.39 2.76 0 5.04-.45 2.3-.46 4.23-2.03 1.93-1.6 1.93-4.16 0-1.61-1.73-2.93-1.75-1.32-4.69-2.36-2.93-1.03-6.73-2.05-3.8-1.05-7.98-2.36-4.2-1.32-8.37-2.94-4.19-1.6-8-4.06-3.8-2.44-6.73-5.49-2.93-3.07-4.66-7.52-1.76-4.43-1.76-9.85 0-5.61 2.05-10.4 2.03-4.8 5.28-8.03 3.25-3.21 7.4-5.54 4.16-2.32 8.41-3.34 4.26-1.05 8.25-1.05 9.08 0 16.47 3.23 7.36 3.23 11.1 10.18l1.36-11.08h22.67v33.12h-23.9q0-7.09-4.83-11.19t-12.05-4.1q-3.3 0-6.19 1.88-2.9 1.87-2.9 5.1 0 2.13 1.78 3.96 1.77 1.83 4.8 3.23 3.02 1.38 6.96 2.7 3.94 1.32 8.27 2.8 4.35 1.47 8.66 3.18 4.33 1.72 8.25 4.14 3.94 2.4 6.96 5.3 3.03 2.91 4.8 7.07 1.77 4.15 1.77 9.11 0 5.93-2.14 10.76-2.17 4.82-5.66 7.99-3.46 3.15-8.1 5.28-4.64 2.12-9.42 3.03-4.77.89-9.65.89-9.22 0-16.2-3.5-7-3.51-11.37-8.67l-1.42 10.18zm112.1 0H559.5v-17.13h7.15V747.2h-7.15v-17.07h41.55v17.07h-7.09v21.47l24.56-21.47h-9.55v-17.07h43.95v17.07h-7.68l-19.12 16.5 26.66 41.56h7.67v17.13h-51.48v-17.13h8.96l-14.24-22.43-9.73 8.3v14.13h7.1v17.13zm108.62 0h-42.66V805h7.4v-57.53h-7.4v-17.33h42.91q8.96 0 15.52 1.42 6.58 1.41 10.58 3.78 4 2.34 6.38 5.98 2.38 3.65 3.2 7.37.85 3.74.85 8.64 0 7.55-5.35 12.72-5.34 5.18-13.79 6.4 6.95.99 12.11 6.39 5.16 5.41 5.16 12.36 0 8.96 3.21 8.96 3.04 0 3.04-4.17v-4.4h8.82v7.3q0 3.4-.57 6.4-.6 2.99-2 5.72-1.41 2.74-3.58 4.71-2.16 1.97-5.51 3.13-3.35 1.16-7.6 1.16-12.76 0-19.16-6.38-6.42-6.38-6.42-18.17 0-4.83-.38-7.45-.4-2.6-1.83-4.47-1.46-1.87-3.98-2.44-2.5-.6-7-.6V805h8.05v17.4zm-8.06-75.05v22.4h5.93q5.85 0 9.28-2.75 3.4-2.77 3.4-7.93 0-5.8-3.1-8.77-3.14-2.95-8.95-2.95h-6.56zm99.59 75.05h-36.96v-17.27h5.53v-31.57h-5.53v-17.13h30.6v48.7h6.36v17.27zm-29.1-76.06q-4.14-4.15-4.14-9.17t3.9-9.26q3.9-4.21 10.34-4.21 6.38 0 10.43 4.25 4.06 4.25 4.06 9.22 0 5.73-3.86 9.53-3.86 3.8-10.63 3.8-6 0-10.1-4.16zm35.62 102.98v-17.25h5.53v-58.12h-5.53v-17.52h30.2l2.27 4.64q7.6-5.67 15.97-5.67 7.48 0 13.5 2.74t9.82 7.5q3.8 4.77 5.8 11 2 6.2 2 13.28 0 10.24-4 18.04-3.98 7.8-10.8 11.86-6.79 4.05-15.3 4.05-3.8 0-7.04-.63-3.25-.65-5.38-1.69-2.13-1.02-3.05-1.63-.95-.61-1.66-1.18v13.33h7.15v17.25h-39.48zm32.33-58.43q0 6.64 2.84 11.2 2.83 4.6 6.64 4.6 4.19 0 6.79-4.52 2.62-4.5 2.62-11.99 0-4-1.16-7.7-1.17-3.7-3.4-6.1-2.22-2.43-4.97-2.43-4.08 0-6.9 4.71-2.52 4.12-2.52 10.5 0 .82.06 1.73zm57.6-17.33h-7.08v-17.13h7.08v-12.11l24.29-7.8v19.9h12.56v17.14h-12.56v23.51l-.02 2.01q-.04 1.42-.04 2.13 0 .7.1 1.89.1 1.2.39 1.83.27.65.73 1.36.45.7 1.22 1.02.79.34 1.87.34 2.84 0 8.31-2.27v16.88q-2.64 1.1-7.86 1.81-5.22.71-8.11.71-5.81 0-9.73-1.42-3.94-1.42-6.06-3.34-2.13-1.93-3.25-6.07-1.13-4.12-1.42-7.37-.3-3.24-.42-9.5v-23.52z" fill="#262626"/>
</svg>
